<svg id="急速退款" xmlns="http://www.w3.org/2000/svg" width="18" height="20.898" viewBox="0 0 18 20.898">
  <path id="路径_722" data-name="路径 722" d="M80.652,4.212,74.416.392a2.748,2.748,0,0,0-2.829,0l-6.236,3.82A2.764,2.764,0,0,0,64,6.6v7.739a2.764,2.764,0,0,0,1.35,2.384l6.236,3.788A2.806,2.806,0,0,0,73,20.9a2.72,2.72,0,0,0,1.414-.392l6.3-3.82A.49.49,0,0,0,80.877,16a.474.474,0,0,0-.675-.163l-6.268,3.82a1.692,1.692,0,0,1-1.832,0l-6.236-3.788A1.787,1.787,0,0,1,65,14.334V6.6a1.787,1.787,0,0,1,.868-1.535L72.1,1.273a1.692,1.692,0,0,1,1.832,0L80.17,5.061A1.787,1.787,0,0,1,81.038,6.6v6.5a.482.482,0,1,0,.964,0V6.6A2.764,2.764,0,0,0,80.652,4.212ZM70.559,16.359a.828.828,0,0,0,.161.62.748.748,0,0,0,.579.261.729.729,0,0,0,.611-.327l6.3-6.857.064-.1a.717.717,0,0,0,0-.718.833.833,0,0,0-.546-.392l-3.921-.98,1.318-3.4v-.1a.9.9,0,0,0-.193-.555.745.745,0,0,0-1.125.065l-5.5,5.388-.064.1a.781.781,0,0,0-.032.751.792.792,0,0,0,.579.392l3.568.718-1.768,5.061-.032.065Zm2.893-5.126.032-.065a.739.739,0,0,0-.161-.62.667.667,0,0,0-.514-.261l-3.375-.653,4.243-4.147L72.713,8v.1a.748.748,0,0,0,.193.522.853.853,0,0,0,.45.229l3.793.947-5.175,5.551,1.479-4.114Z" transform="translate(-64.002 0)" fill="#e6f3f0"/>
  <path id="路径_723" data-name="路径 723" d="M312.843,225.279l-1.149,3.448,4.6,1.463-6.478,7.053,1.149-5.695L307.2,230.5Z" transform="translate(-302.392 -220.682)" fill="#e6f3f0"/>
</svg>
